HIERARCHY
ROOT root
{
	OFFSET 0.000000 0.000000 0.000000
	CHANNELS 6 Xposition Yposition Zposition Zrotation Yrotation Xrotation
	JOINT lhip
	{
		OFFSET 0.058581 -0.082280 -0.017664
		CHANNELS 3 Zrotation Yrotation Xrotation
		JOINT lknee
		{
			OFFSET 0.043451 -0.386469 0.008037
			CHANNELS 3 Zrotation Yrotation Xrotation
			JOINT lankle
			{
				OFFSET -0.014790 -0.426874 -0.037428
				CHANNELS 3 Zrotation Yrotation Xrotation
				JOINT ltoe
				{
					OFFSET 0.041054 -0.060286 0.122042
					CHANNELS 3 Zrotation Yrotation Xrotation
					End Site
					{
						OFFSET 0.000000 0.000000 0.000000
					}
				}
			}
		}
	}
	JOINT rhip
	{
		OFFSET -0.060310 -0.090513 -0.013543
		CHANNELS 3 Zrotation Yrotation Xrotation
		JOINT rknee
		{
			OFFSET -0.043257 -0.383688 -0.004843
			CHANNELS 3 Zrotation Yrotation Xrotation
			JOINT rankle
			{
				OFFSET 0.019056 -0.420046 -0.034562
				CHANNELS 3 Zrotation Yrotation Xrotation
				JOINT rtoe
				{
					OFFSET -0.034840 -0.062106 0.130323
					CHANNELS 3 Zrotation Yrotation Xrotation
					End Site
					{
						OFFSET 0.000000 0.000000 0.000000
					}
				}
			}
		}
	}
	JOINT lowerback
	{
		OFFSET 0.004439 0.124404 -0.038385
		CHANNELS 3 Zrotation Yrotation Xrotation
		JOINT upperback
		{
			OFFSET 0.004488 0.137956 0.026820
			CHANNELS 3 Zrotation Yrotation Xrotation
			JOINT chest
			{
				OFFSET -0.002265 0.056032 0.002855
				CHANNELS 3 Zrotation Yrotation Xrotation
				JOINT lowerneck
				{
					OFFSET -0.013390 0.211636 -0.033468
					CHANNELS 3 Zrotation Yrotation Xrotation
					JOINT upperneck
					{
						OFFSET 0.010113 0.088937 0.050410
						CHANNELS 3 Zrotation Yrotation Xrotation
						End Site
						{
							OFFSET 0.000000 0.000000 0.000000
						}
					}
				}
				JOINT lclavicle
				{
					OFFSET 0.071702 0.114000 -0.018898
					CHANNELS 3 Zrotation Yrotation Xrotation
					JOINT lshoulder
					{
						OFFSET 0.122921 0.045205 -0.019046
						CHANNELS 3 Zrotation Yrotation Xrotation
						JOINT lelbow
						{
							OFFSET 0.255332 -0.015649 -0.022946
							CHANNELS 3 Zrotation Yrotation Xrotation
							JOINT lwrist
							{
								OFFSET 0.265709 0.012698 -0.007375
								CHANNELS 3 Zrotation Yrotation Xrotation
								End Site
								{
									OFFSET 0.000000 0.000000 0.000000
								}
							}
						}
					}
				}
				JOINT rclavicle
				{
					OFFSET -0.082954 0.112472 -0.023707
					CHANNELS 3 Zrotation Yrotation Xrotation
					JOINT rshoulder
					{
						OFFSET -0.113228 0.046853 -0.008472
						CHANNELS 3 Zrotation Yrotation Xrotation
						JOINT relbow
						{
							OFFSET -0.260127 -0.014369 -0.031269
							CHANNELS 3 Zrotation Yrotation Xrotation
							JOINT rwrist
							{
								OFFSET -0.269108 0.006794 -0.006027
								CHANNELS 3 Zrotation Yrotation Xrotation
								End Site
								{
									OFFSET 0.000000 0.000000 0.000000
								}
							}
						}
					}
				}
			}
		}
	}
}
MOTION
Frames: 5
Frame Time: 0.033333
-1.912496 -0.510118 0.981172 92.429665 -1.757065 85.605741 0.493928 -4.795516 1.699740 -5.089057 -0.043340 6.534654 2.873127 6.153190 -27.839090 0.000000 -0.000000 0.000000 2.133801 1.801789 7.712491 -1.531232 -5.487020 -2.038998 -0.888814 -8.346065 -18.626312 0.000000 -0.000000 0.000000 0.296388 3.171790 -2.346783 0.433749 -3.850137 27.100485 -2.644880 1.009702 -8.529206 2.926586 27.243122 -12.902008 -4.064714 2.283202 11.066543 -18.576212 6.867141 -2.129351 -61.600130 -0.949055 18.699237 -6.333496 -51.044798 31.595019 -17.048275 -23.246061 -16.589053 26.541829 2.875222 9.021598 58.739539 17.386129 24.100950 1.954789 29.403432 15.874859 -2.142754 12.021856 -18.393292 
-1.914834 -0.506187 0.981723 91.864733 -1.808996 86.125728 -0.026540 -5.343103 1.377504 -4.773290 -0.079167 6.123093 3.093623 7.166622 -27.532790 0.000000 -0.000000 0.000000 1.768765 2.548691 6.723363 -1.459321 -4.759864 -1.581640 0.142024 -9.365034 -18.690332 0.000000 -0.000000 0.000000 0.186637 2.960511 -1.767354 0.472680 -3.318331 25.177931 -2.651105 1.156902 -7.181130 2.270388 22.626728 -15.072153 -4.023798 -0.138268 10.268408 -19.261179 5.505970 -1.560489 -61.219851 -1.767113 19.255880 -4.586719 -49.811763 29.163055 -13.146383 -22.042401 -16.983252 26.385915 4.338092 8.221197 58.978527 14.722039 24.088681 -0.388167 30.760469 13.780051 -3.749653 11.304650 -16.944212 
-1.915967 -0.502366 0.982327 91.271591 -1.622309 86.657885 -0.346110 -5.926938 1.030755 -4.484072 -0.326419 5.614746 3.787854 8.447948 -26.964574 0.000000 -0.000000 0.000000 1.779095 3.143995 5.799242 -1.559566 -3.660165 -1.201967 0.312186 -10.491590 -18.479934 0.000000 -0.000000 0.000000 0.410282 2.859104 -1.926752 0.569200 -2.721526 24.418424 -2.790395 1.237630 -6.513355 1.469014 18.747774 -16.355828 -3.670611 -1.767116 9.322059 -19.832772 3.245820 -0.440216 -61.085454 -2.608298 19.473236 -2.571503 -48.173026 26.294588 -8.528654 -20.705141 -17.175040 26.491566 6.258391 7.641467 58.967433 11.596701 23.530640 -2.723981 32.004347 12.354465 -5.370804 11.115886 -14.555752 
-1.916382 -0.498846 0.982912 90.338287 -1.169045 86.821082 -0.398229 -5.858276 1.228283 -4.117933 -0.212260 5.074568 4.183793 8.984068 -26.951366 0.000000 -0.000000 0.000000 2.288290 3.910113 5.423334 -1.839403 -2.753987 -1.054662 0.226137 -11.461471 -18.272838 0.000000 -0.000000 0.000000 0.463975 2.875461 -1.430015 0.725501 -2.158698 23.468027 -2.533822 1.413251 -6.037030 0.766777 15.248408 -17.501500 -3.077894 -3.307553 8.241045 -20.137285 0.205882 0.907001 -61.950146 -3.645827 19.206327 0.195773 -45.316314 22.595800 -5.548839 -19.211777 -15.479315 26.846416 8.748495 7.514836 58.783051 8.631270 22.072086 -5.100926 33.234298 9.318083 -6.149074 10.801051 -12.627766 
-1.916351 -0.496596 0.983032 89.989020 -0.866286 86.784045 -0.333743 -5.425519 1.384325 -3.937647 -0.228901 4.893498 4.244279 8.892453 -27.041898 0.000000 -0.000000 0.000000 2.553215 3.591802 5.206517 -2.019483 -2.602795 -0.741775 0.398987 -11.173746 -18.372332 0.000000 -0.000000 0.000000 0.177885 2.968410 -1.029665 0.910002 -2.225014 22.857686 -2.138961 1.179563 -5.777482 0.814375 14.721395 -18.175543 -2.748165 -3.749841 8.237998 -20.050521 -0.673926 1.313220 -62.820635 -4.250778 19.049266 1.260575 -43.745865 21.375328 -4.450419 -18.447419 -14.029319 26.749805 8.541313 7.188550 58.631135 8.553842 21.539057 -4.371595 33.171536 10.061971 -6.358305 10.940605 -11.673022 
